HIERARCHY
ROOT Hips
{
	OFFSET -3.958830 18.904000 13.208200
	CHANNELS 6 Xposition Yposition Zposition Zrotation Yrotation Xrotation 
	JOINT LHipJoint
	{
		OFFSET 0.000000 0.000000 0.000000
		CHANNELS 3 Zrotation Yrotation Xrotation
		JOINT LeftUpLeg
		{
			OFFSET 1.800000 -1.400000 0.085000
			CHANNELS 3 Zrotation Yrotation Xrotation
			JOINT LeftLeg
			{
				OFFSET 2.215000 -6.000000 0.000000
				CHANNELS 3 Zrotation Yrotation Xrotation
				JOINT LeftFoot
				{
					OFFSET 2.500000 -6.900000 0.000000
					CHANNELS 3 Zrotation Yrotation Xrotation
					JOINT LeftToeBase
					{
						OFFSET 0.200000 -0.500000 1.950000
						CHANNELS 3 Zrotation Yrotation Xrotation
						End Site
						{
							OFFSET 0.000000 0.000000 0.000000
						}
					}
				}
			}
		}
	}
	JOINT RHipJoint
	{
		OFFSET 0.000000 0.000000 0.000000
		CHANNELS 3 Zrotation Yrotation Xrotation
		JOINT RightUpLeg
		{
			OFFSET -1.800000 -1.400000 0.085000
			CHANNELS 3 Zrotation Yrotation Xrotation
			JOINT RightLeg
			{
				OFFSET -2.215000 -6.000000 0.000000
				CHANNELS 3 Zrotation Yrotation Xrotation
				JOINT RightFoot
				{
					OFFSET -2.500000 -6.900000 0.000000
					CHANNELS 3 Zrotation Yrotation Xrotation
					JOINT RightToeBase
					{
						OFFSET -0.200000 -0.500000 1.950000
						CHANNELS 3 Zrotation Yrotation Xrotation
						End Site
						{
							OFFSET 0.000000 0.000000 0.000000
						}
					}
				}
			}
		}
	}
	JOINT LowerBack
	{
		OFFSET 0.000000 0.000000 0.000000
		CHANNELS 3 Zrotation Yrotation Xrotation
		JOINT Spine
		{
			OFFSET -0.087000 1.940000 -0.288900
			CHANNELS 3 Zrotation Yrotation Xrotation
			JOINT Spine1
			{
				OFFSET 0.000000 1.950000 0.060000
				CHANNELS 3 Zrotation Yrotation Xrotation
				JOINT Neck
				{
					OFFSET 0.000000 0.000000 0.000000
					CHANNELS 3 Zrotation Yrotation Xrotation
					JOINT Neck1
					{
						OFFSET 0.000000 1.600000 0.340000
						CHANNELS 3 Zrotation Yrotation Xrotation
						JOINT Head
						{
							OFFSET 0.000000 1.667000 -0.240000
							CHANNELS 3 Zrotation Yrotation Xrotation
							End Site
							{
								OFFSET 0.000000 0.000000 0.000000
							}
						}
					}
				}
				JOINT LeftShoulder
				{
					OFFSET 0.000000 0.000000 0.000000
					CHANNELS 3 Zrotation Yrotation Xrotation
					JOINT LeftArm
					{
						OFFSET 2.700000 1.550000 -0.730000
						CHANNELS 3 Zrotation Yrotation Xrotation
						JOINT LeftForeArm
						{
							OFFSET 5.450000 0.000000 0.000000
							CHANNELS 3 Zrotation Yrotation Xrotation
							JOINT LeftHand
							{
								OFFSET 3.450000 0.000000 0.000000
								CHANNELS 3 Zrotation Yrotation Xrotation
								JOINT LeftHandIndex1
								{
									OFFSET 0.750000 0.000000 0.000000
									CHANNELS 3 Zrotation Yrotation Xrotation
									End Site
									{
										OFFSET 0.000000 0.000000 0.000000
									}
								}
							}
						}
					}
				}
				JOINT RightShoulder
				{
					OFFSET 0.000000 0.000000 0.000000
					CHANNELS 3 Zrotation Yrotation Xrotation
					JOINT RightArm
					{
						OFFSET -2.700000 1.550000 -0.730000
						CHANNELS 3 Zrotation Yrotation Xrotation
						JOINT RightForeArm
						{
							OFFSET -5.450000 0.000000 0.000000
							CHANNELS 3 Zrotation Yrotation Xrotation
							JOINT RightHand
							{
								OFFSET -3.450000 0.000000 0.000000
								CHANNELS 3 Zrotation Yrotation Xrotation
								JOINT RightHandIndex1
								{
									OFFSET -0.750000 0.000000 0.000000
									CHANNELS 3 Zrotation Yrotation Xrotation
									End Site
									{
										OFFSET 0.000000 0.000000 0.000000
									}
								}
							}
						}
					}
				}
			}
		}
	}
}
MOTION
Frames: 11
Frame Time: 0.016667
1.068910 11.675800 -0.806090 -80.054018 -52.783450 36.243923 -15.906831 5.554471 5.525084 -28.816108 -25.084556 -75.958054 33.849056 -2.250752 27.420515 0.361937 4.813143 2.579359 0.688060 0.781250 0.568110 19.175686 -2.046391 9.637172 -52.094964 18.800763 -10.742473 49.643444 39.478243 -56.910696 -1.076403 -3.281197 3.082472 0.289370 -0.311170 -0.042270 -4.471242 -1.140202 -12.391568 11.176808 -0.469168 59.314578 -19.841443 3.346612 19.589731 12.163324 -7.851694 -15.213830 -21.224723 13.389306 52.109925 1.189520 1.884820 -13.395880 -5.853234 -17.538584 11.302540 -44.729269 -2.522797 -1.700885 22.021381 0.641246 0.174205 -3.322982 3.184191 0.309970 -0.365770 0.401230 0.134670 -18.275473 28.545291 0.933699 -12.828324 15.046032 -20.060647 -70.439279 46.693881 -32.753042 2.987816 -1.761938 0.194280 0.164560 -0.364840 0.031080 
1.028730 11.648140 -0.634790 -85.278632 -55.315504 36.144092 -15.796140 5.741448 5.268066 -28.008821 -24.466291 -76.106424 42.811834 -5.441519 33.338534 0.713977 7.207164 1.796268 0.617410 0.662410 0.536490 19.294622 -2.181219 9.631110 -55.365327 19.997080 -11.881413 67.765386 38.985034 -42.738060 -1.029170 -3.448849 2.999964 0.269470 -0.263400 -0.074880 -4.692079 -0.772708 -12.364308 14.708955 -3.450693 63.018392 -22.002565 2.538180 20.610134 13.073479 -8.306731 -16.127001 -23.981182 13.975843 52.442252 0.730740 0.164470 -12.150930 -9.723647 -20.406868 12.030116 -43.888322 -1.073479 -0.975172 19.212698 4.469099 1.012792 -3.368319 3.085892 0.346170 -0.347350 0.339490 0.092430 -16.063847 31.313205 1.214022 -14.845240 13.415814 -20.616488 -60.685062 44.300391 -25.162204 3.051303 -1.865992 0.110590 0.220180 -0.287640 -0.004300 
0.918690 11.677990 -0.580020 -86.412209 -58.703636 33.750105 -15.866300 6.098778 5.198066 -27.851703 -25.229001 -76.973511 54.881063 -9.304967 38.052769 1.177509 10.151523 0.836865 0.582370 0.546360 0.578890 19.194670 -2.491982 9.302826 -59.972548 19.451912 -14.341872 89.443893 33.077343 -26.014367 -0.995005 -3.418859 2.930693 0.257360 -0.286400 -0.066180 -4.626198 -0.899061 -12.260676 13.295712 -2.516497 64.850589 -21.330953 3.114798 20.974880 12.551616 -7.081704 -16.762359 -22.261842 14.287317 56.909388 1.360190 0.334410 -12.867620 -11.201852 -22.329999 12.651848 -42.924375 0.558916 -0.415302 14.493650 6.659968 1.137661 -3.395011 2.942172 0.489350 -0.369580 0.343330 0.004730 -13.659396 32.801418 1.882953 -12.315296 15.485827 -19.557766 -54.453266 41.095656 -20.770793 2.877074 -1.739485 0.017320 0.239760 -0.197290 -0.103410 
0.808570 11.754080 -0.574730 -85.388788 -62.359276 29.654777 -15.983231 6.720648 5.261767 -26.355373 -25.492487 -77.890910 67.113134 -13.282396 41.726366 1.924898 12.722822 0.132322 0.619400 0.560230 0.710940 18.950916 -3.228622 8.552093 -63.260882 17.685151 -17.318255 106.716371 20.793213 -12.002122 -1.190109 -3.906799 2.743973 0.191660 -0.406530 -0.020210 -4.409485 -1.237205 -11.993494 9.781041 0.164179 66.579679 -19.451784 4.525656 19.832149 11.557236 -4.346857 -17.977670 -16.824391 11.939432 64.245433 -0.517330 1.500660 -12.728650 -13.238233 -24.464755 13.237845 -39.785301 2.255333 -0.373105 7.822122 9.842293 0.888400 -3.363412 2.850768 0.534490 -0.423150 0.456440 -0.029960 -9.993671 34.693920 3.566776 -7.661970 17.374486 -17.898754 -47.545026 36.431847 -16.141534 2.832226 -1.664076 0.096220 0.168820 -0.253980 -0.133870 
0.704770 11.865460 -0.607670 -85.124140 -63.471830 27.073827 -16.021711 7.151004 5.470942 -22.959386 -25.824789 -79.098926 78.415762 -17.340798 44.066765 2.425636 14.751657 -0.357358 0.577920 0.507760 0.718380 18.759481 -4.168379 7.596301 -63.529033 15.403234 -20.539577 119.214300 3.104316 -1.941576 -1.557874 -5.551860 2.246564 0.184640 -0.401280 -0.029830 -4.333959 -1.224332 -11.688205 8.708006 0.812855 66.134305 -19.154347 6.134440 21.097004 11.350892 -1.743976 -19.244357 -10.822939 8.677239 69.442466 -2.499080 1.546240 -10.164650 -14.653616 -26.222329 13.270745 -34.305106 2.882771 -0.405606 1.740929 13.549342 -0.083491 -3.486185 2.688395 0.530240 -0.370900 0.423680 -0.069970 -8.392571 35.412855 5.331486 -0.151136 20.425986 -16.807145 -44.789418 28.516839 -13.603757 2.792220 -1.682786 0.059060 0.169360 -0.220060 -0.177130 
0.634390 11.999150 -0.592900 -85.425229 -64.341841 25.973660 -16.090123 7.693482 5.866499 -17.919197 -25.524703 -79.365953 88.793673 -20.979597 44.750828 2.820250 15.938539 -0.598268 0.672650 0.642450 0.726060 18.502666 -5.311957 6.261501 -61.046317 13.617387 -24.741488 124.482794 -23.835078 7.224162 -2.323251 -8.653046 1.338345 0.273110 -0.417400 -0.012300 -4.123290 -1.434286 -11.261624 7.317053 1.292339 65.092989 -17.983154 7.105350 23.032476 11.298294 -0.593801 -19.640874 -7.391663 6.553973 71.509659 -1.700380 0.477360 -10.307180 -18.380036 -26.948105 12.668067 -31.829284 3.517677 -0.771194 6.048045 14.026174 0.599490 -3.536401 2.755800 0.490020 -0.359340 0.427990 -0.031180 -4.679270 35.647376 6.790935 6.042880 24.206105 -15.595709 -43.145751 22.645513 -12.372014 2.692766 -1.750773 0.103430 0.148910 -0.260930 -0.159050 
0.606670 12.100140 -0.580240 -84.863895 -66.006820 24.015238 -16.191163 8.163800 6.278933 -11.616436 -24.309490 -79.053412 94.381434 -25.836533 49.812495 3.288139 17.131880 -0.788151 0.709650 0.690240 0.753780 18.264215 -6.227432 5.119754 -58.726422 13.190278 -28.351349 117.747738 -43.787498 17.337140 -2.701965 -10.258172 0.896680 0.259230 -0.455900 0.018300 -3.962679 -1.655234 -10.942322 5.031205 2.309571 66.375527 -16.745198 7.763087 23.150590 10.630077 0.810666 -21.175524 -4.567258 4.182747 73.639596 -2.007950 0.070790 -9.861000 -21.433690 -28.333512 12.578466 -29.240865 5.824023 -1.394137 4.935522 13.627753 0.334260 -3.507769 2.730115 0.481910 -0.376270 0.478150 -0.008210 -0.580001 36.800998 9.277668 11.037015 23.284461 -15.297331 -40.054539 20.057070 -10.742709 2.690351 -1.806166 0.164080 0.111420 -0.306140 -0.139530 
0.614750 12.214020 -0.598170 -81.461264 -67.395867 20.413005 -16.453394 8.262961 6.659335 -1.530431 -22.378439 -79.255969 90.333807 -32.163616 64.094791 3.713826 19.174433 -1.245108 0.789740 0.774120 0.852760 18.006914 -6.194137 4.632102 -56.998555 12.830569 -30.286854 99.456303 -56.756880 33.113006 -2.739796 -10.575322 0.741261 0.324230 -0.542230 0.008180 -3.590375 -2.460754 -10.917282 0.617863 5.146879 67.288064 -12.243078 8.379150 23.348273 8.979937 0.930436 -20.982665 -4.429211 4.285831 76.428469 -1.503500 0.912640 -12.897780 -22.652873 -28.922106 12.161171 -29.763134 4.525176 -1.372135 6.765216 13.787444 0.608953 -3.496524 2.715952 0.568480 -0.433370 0.541950 -0.051710 3.799364 37.542431 10.462600 17.827673 21.024724 -14.629633 -37.536991 19.587354 -9.865975 2.584563 -1.729601 0.155990 0.129660 -0.316150 -0.196170 
0.606980 12.242730 -0.606840 -76.917822 -68.938620 16.656817 -16.692182 7.901757 7.026662 10.822650 -19.261455 -78.908853 77.083073 -36.969283 89.040314 4.672853 22.530408 -1.699996 0.743370 0.740200 0.821270 17.888244 -5.458898 4.851081 -58.203465 11.943916 -33.085957 84.111799 -56.838043 42.854815 -2.841226 -11.366705 0.546337 0.267010 -0.531690 -0.002880 -3.351173 -3.024664 -11.296106 -2.171484 6.903772 68.240481 -9.267097 9.572531 20.975049 7.488135 1.844241 -21.614622 -2.552997 2.355533 77.826951 -1.815740 1.108860 -9.672420 -25.619227 -29.389847 11.817883 -27.086121 4.336748 -1.130357 5.260600 14.011497 0.439108 -3.509283 2.680396 0.516820 -0.413740 0.533020 -0.033850 9.707455 37.708935 11.492096 19.255825 17.321491 -11.547899 -29.238173 14.528412 -5.746966 2.689805 -1.624884 0.181330 0.101100 -0.338700 -0.171030 
0.598720 12.215070 -0.620910 -70.532319 -69.901257 11.724731 -16.837679 7.537134 7.300538 20.504411 -16.420329 -77.553621 64.338474 -35.281451 107.638113 5.189199 24.188592 -1.846154 0.729150 0.706600 0.798260 17.879902 -4.750437 5.191445 -59.343218 10.070523 -36.394233 63.620779 -56.116813 57.007793 -3.090275 -12.869785 0.157915 0.210970 -0.540040 -0.003710 -3.271524 -3.259600 -11.693172 -3.513408 7.245191 69.911431 -7.266800 10.400906 17.122029 5.918154 1.881463 -21.935356 -3.830167 1.899896 78.335528 0.444380 -0.042870 -7.474820 -27.385210 -29.601801 11.145039 -25.469008 2.829429 -0.939038 6.458273 13.240950 0.616044 -3.476314 2.732056 0.514310 -0.445440 0.542850 -0.004850 15.070139 37.198419 12.524046 22.447309 11.382704 -9.635454 -23.817722 10.576830 -3.256851 2.811793 -1.527796 0.210030 0.056060 -0.374000 -0.145690 
0.615300 12.177830 -0.585910 -71.410308 -72.826354 14.602423 -16.951963 7.343283 7.418378 30.771769 -11.458789 -74.420874 55.628151 -30.279864 119.728307 4.855096 22.834704 -1.689764 0.799160 0.783020 0.857930 17.862039 -4.437612 5.274051 -56.208937 7.540072 -42.811958 42.215305 -48.570364 68.808803 -3.300437 -14.620971 -0.350274 0.261550 -0.606130 0.013030 -3.223555 -3.311218 -11.857673 -3.476688 7.371352 68.502836 -5.957900 11.961570 17.051637 5.476067 2.102785 -21.786056 -3.933270 1.040220 79.399890 -0.126930 -0.524280 -9.847800 -27.571530 -29.884800 10.214267 -25.908730 -0.801114 -0.565624 8.287587 11.125668 0.629042 -3.447642 2.774502 0.553690 -0.483680 0.592910 -0.014160 16.242148 37.189834 13.103687 28.682254 5.647230 -9.145908 -21.012604 9.155120 -2.303933 2.782173 -1.491310 0.229120 0.043590 -0.397190 -0.166210 
